<svg width="32" height="32" viewBox="0 0 32 32" fill="none" xmlns="http://www.w3.org/2000/svg">
<path d="M10 20C15.5228 20 20 15.5228 20 10C20 4.47715 15.5228 0 10 0C4.47715 0 0 4.47715 0 10C0 15.5228 4.47715 20 10 20Z" transform="translate(6 6)" stroke="black" stroke-width="2" stroke-linecap="round" stroke-linejoin="round"/>
<path d="M6.12132 1.87868C6.51184 2.2692 7.14501 2.2692 7.53553 1.87868C7.92606 1.48816 7.92606 0.85499 7.53553 0.464466L6.12132 1.87868ZM7.53553 7.53553C7.92606 7.14501 7.92606 6.51184 7.53553 6.12132C7.14501 5.7308 6.51184 5.7308 6.12132 6.12132L7.53553 7.53553ZM4 7C2.34315 7 1 5.65685 1 4H-1C-1 6.76142 1.23858 9 4 9V7ZM1 4C1 2.34315 2.34315 1 4 1V-1C1.23858 -1 -1 1.23858 -1 4H1ZM4 1C4.8287 1 5.57733 1.33469 6.12132 1.87868L7.53553 0.464466C6.63181 -0.439261 5.38044 -1 4 -1V1ZM6.12132 6.12132C5.57733 6.66531 4.8287 7 4 7V9C5.38044 9 6.63181 8.43926 7.53553 7.53553L6.12132 6.12132Z" transform="translate(12 12)" fill="black"/>
</svg>
