<svg width="32" height="32" viewBox="0 0 32 32" fill="none" xmlns="http://www.w3.org/2000/svg">
<path d="M2 18H17.6459C18.4637 18 19.1992 17.5021 19.5029 16.7428L22.4514 9.37139C22.7142 8.71453 22.2304 8 21.523 8H20M2 18C1.46957 18 0.960859 17.7893 0.585786 17.4142C0.210714 17.0391 0 16.5304 0 16V2C0 1.46957 0.210714 0.960859 0.585786 0.585786C0.960859 0.210714 1.46957 0 2 0H7L9 3H18C18.5304 3 19.0391 3.21071 19.4142 3.58579C19.7893 3.96086 20 4.46957 20 5V8M2 18L5.49711 9.25722C5.80084 8.4979 6.53626 8 7.35407 8H20" transform="translate(6 6)" stroke="black" stroke-width="2" stroke-linecap="round" stroke-linejoin="round"/>
</svg>
